<svg width="233" height="129" viewBox="0 0 233 129" fill="none" xmlns="http://www.w3.org/2000/svg">
<g clip-path="url(#clip0_301_354)">
<rect width="233" height="129" fill="#556D60"/>
<circle cx="227.5" cy="5.5" r="29.5" fill="#F8DDF3" fill-opacity="0.6"/>
<circle cx="23" cy="140" r="21" fill="#F8DDF3" fill-opacity="0.6"/>
<circle cx="1" cy="11" r="5" fill="#F8DDF3" fill-opacity="0.6"/>
<circle cx="225.5" cy="127.5" r="7.5" fill="#F8DDF3" fill-opacity="0.6"/>
<path d="M104.2 44.094H105.971V58.405H113.649V60H104.189L104.2 44.094ZM118.382 48.626V60H116.71V48.626H118.382ZM118.437 44.105V45.997H116.633V44.105H118.437ZM126.045 60.22C125.253 60.22 124.523 60.099 123.856 59.857C123.196 59.6077 122.65 59.23 122.217 58.724C121.792 58.2107 121.524 57.558 121.414 56.766H123.009C123.112 57.2207 123.299 57.6057 123.57 57.921C123.841 58.2363 124.186 58.4783 124.604 58.647C125.029 58.8083 125.51 58.889 126.045 58.889C126.852 58.889 127.501 58.735 127.992 58.427C128.483 58.1117 128.729 57.6313 128.729 56.986C128.729 56.5387 128.601 56.1793 128.344 55.908C128.095 55.6367 127.713 55.4387 127.2 55.314L124.747 54.687C123.852 54.4597 123.141 54.1187 122.613 53.664C122.085 53.202 121.817 52.5603 121.81 51.739C121.81 51.0863 121.964 50.5107 122.272 50.012C122.587 49.5133 123.057 49.121 123.68 48.835C124.303 48.549 125.084 48.406 126.023 48.406C127.218 48.406 128.183 48.6737 128.916 49.209C129.649 49.7443 130.038 50.5437 130.082 51.607H128.52C128.447 51.0277 128.197 50.5693 127.772 50.232C127.347 49.8873 126.76 49.715 126.012 49.715C125.242 49.715 124.615 49.8727 124.131 50.188C123.654 50.5033 123.416 50.991 123.416 51.651C123.416 52.091 123.581 52.4357 123.911 52.685C124.241 52.927 124.721 53.1287 125.352 53.29L127.75 53.917C128.249 54.049 128.659 54.225 128.982 54.445C129.312 54.6577 129.572 54.8997 129.763 55.171C129.961 55.435 130.1 55.7173 130.181 56.018C130.269 56.3187 130.313 56.6083 130.313 56.887C130.313 57.569 130.148 58.1593 129.818 58.658C129.488 59.1567 129.004 59.5417 128.366 59.813C127.735 60.0843 126.962 60.22 126.045 60.22ZM138.493 49.913H135.919V57.25C135.919 57.69 135.96 58.0127 136.04 58.218C136.128 58.416 136.279 58.5443 136.491 58.603C136.711 58.6543 137.016 58.68 137.404 58.68H138.57V59.868C138.431 59.9193 138.222 59.9633 137.943 60C137.672 60.0293 137.346 60.044 136.964 60.044C136.238 60.044 135.674 59.9413 135.27 59.736C134.874 59.5307 134.596 59.2263 134.434 58.823C134.273 58.4197 134.192 57.9137 134.192 57.305V49.913H132.344V48.626H134.236L134.643 45.348H135.919V48.615H138.493V49.913ZM150.85 60.22C149.823 60.22 148.921 60 148.144 59.56C147.374 59.1127 146.776 58.4527 146.351 57.58C145.926 56.7073 145.713 55.633 145.713 54.357C145.713 53.169 145.907 52.1277 146.296 51.233C146.692 50.3383 147.271 49.6453 148.034 49.154C148.797 48.6553 149.739 48.406 150.861 48.406C151.888 48.406 152.779 48.6333 153.534 49.088C154.297 49.5353 154.887 50.2027 155.305 51.09C155.73 51.97 155.943 53.059 155.943 54.357C155.943 55.5157 155.752 56.535 155.371 57.415C154.99 58.295 154.421 58.9843 153.666 59.483C152.918 59.9743 151.979 60.22 150.85 60.22ZM150.861 58.834C151.572 58.834 152.177 58.658 152.676 58.306C153.182 57.954 153.567 57.4407 153.831 56.766C154.102 56.0913 154.238 55.2737 154.238 54.313C154.238 53.4477 154.121 52.674 153.886 51.992C153.651 51.31 153.285 50.7747 152.786 50.386C152.287 49.99 151.646 49.792 150.861 49.792C150.135 49.792 149.515 49.968 149.002 50.32C148.496 50.6647 148.107 51.1743 147.836 51.849C147.565 52.5237 147.429 53.345 147.429 54.313C147.429 55.1783 147.546 55.952 147.781 56.634C148.023 57.3087 148.397 57.844 148.903 58.24C149.409 58.636 150.062 58.834 150.861 58.834ZM164.547 48.626V49.913H161.687V60H159.971V49.913H157.485V48.626H159.971V46.822C159.971 45.9273 160.191 45.249 160.631 44.787C161.071 44.325 161.742 44.094 162.644 44.094H164.657V45.348H162.908C162.424 45.348 162.094 45.48 161.918 45.744C161.749 46.0007 161.665 46.3893 161.665 46.91V48.626H164.547ZM109.865 69.874C110.965 69.874 111.94 70.105 112.791 70.567C113.642 71.029 114.324 71.6413 114.837 72.404C115.35 73.1667 115.655 73.9953 115.75 74.89H113.902C113.777 74.252 113.543 73.669 113.198 73.141C112.861 72.613 112.41 72.1913 111.845 71.876C111.28 71.5607 110.609 71.403 109.832 71.403C108.805 71.403 107.94 71.6413 107.236 72.118C106.539 72.5947 106.011 73.3243 105.652 74.307C105.3 75.2823 105.124 76.5253 105.124 78.036C105.124 80.3093 105.52 81.985 106.312 83.063C107.111 84.141 108.285 84.68 109.832 84.68C110.609 84.68 111.28 84.5187 111.845 84.196C112.41 83.866 112.861 83.4333 113.198 82.898C113.543 82.3553 113.777 81.765 113.902 81.127H115.75C115.669 81.7797 115.486 82.414 115.2 83.03C114.921 83.6387 114.536 84.185 114.045 84.669C113.561 85.1457 112.967 85.5233 112.263 85.802C111.566 86.0807 110.767 86.22 109.865 86.22C108.45 86.22 107.247 85.901 106.257 85.263C105.274 84.6177 104.523 83.6863 104.002 82.469C103.481 81.2443 103.221 79.7593 103.221 78.014C103.221 76.2687 103.478 74.791 103.991 73.581C104.512 72.371 105.267 71.4507 106.257 70.82C107.247 70.1893 108.45 69.874 109.865 69.874ZM123.114 86.22C122.087 86.22 121.185 86 120.408 85.56C119.638 85.1127 119.04 84.4527 118.615 83.58C118.189 82.7073 117.977 81.633 117.977 80.357C117.977 79.169 118.171 78.1277 118.56 77.233C118.956 76.3383 119.535 75.6453 120.298 75.154C121.06 74.6553 122.003 74.406 123.125 74.406C124.151 74.406 125.042 74.6333 125.798 75.088C126.56 75.5353 127.151 76.2027 127.569 77.09C127.994 77.97 128.207 79.059 128.207 80.357C128.207 81.5157 128.016 82.535 127.635 83.415C127.253 84.295 126.685 84.9843 125.93 85.483C125.182 85.9743 124.243 86.22 123.114 86.22ZM123.125 84.834C123.836 84.834 124.441 84.658 124.94 84.306C125.446 83.954 125.831 83.4407 126.095 82.766C126.366 82.0913 126.502 81.2737 126.502 80.313C126.502 79.4477 126.384 78.674 126.15 77.992C125.915 77.31 125.548 76.7747 125.05 76.386C124.551 75.99 123.909 75.792 123.125 75.792C122.399 75.792 121.779 75.968 121.266 76.32C120.76 76.6647 120.371 77.1743 120.1 77.849C119.828 78.5237 119.693 79.345 119.693 80.313C119.693 81.1783 119.81 81.952 120.045 82.634C120.287 83.3087 120.661 83.844 121.167 84.24C121.673 84.636 122.325 84.834 123.125 84.834ZM131.002 86V74.626H132.652V76.287C132.843 75.957 133.103 75.6527 133.433 75.374C133.771 75.0953 134.178 74.8717 134.654 74.703C135.138 74.5343 135.681 74.45 136.282 74.45C137.016 74.45 137.683 74.5967 138.284 74.89C138.893 75.176 139.377 75.6233 139.736 76.232C140.096 76.8407 140.275 77.6217 140.275 78.575V86H138.559V78.729C138.559 77.761 138.314 77.046 137.822 76.584C137.331 76.122 136.682 75.891 135.875 75.891C135.325 75.891 134.808 75.979 134.324 76.155C133.84 76.331 133.452 76.5987 133.158 76.958C132.865 77.3173 132.718 77.7683 132.718 78.311V86H131.002ZM148.505 75.913H145.931V83.25C145.931 83.69 145.971 84.0127 146.052 84.218C146.14 84.416 146.29 84.5443 146.503 84.603C146.723 84.6543 147.027 84.68 147.416 84.68H148.582V85.868C148.443 85.9193 148.234 85.9633 147.955 86C147.684 86.0293 147.357 86.044 146.976 86.044C146.25 86.044 145.685 85.9413 145.282 85.736C144.886 85.5307 144.607 85.2263 144.446 84.823C144.285 84.4197 144.204 83.9137 144.204 83.305V75.913H142.356V74.626H144.248L144.655 71.348H145.931V74.615H148.505V75.913ZM152.449 80.709C152.449 81.4717 152.574 82.1647 152.823 82.788C153.072 83.4113 153.457 83.91 153.978 84.284C154.499 84.658 155.159 84.845 155.958 84.845C156.728 84.845 157.392 84.6653 157.949 84.306C158.506 83.9393 158.855 83.4223 158.994 82.755H160.644C160.505 83.5177 160.2 84.1557 159.731 84.669C159.269 85.1823 158.708 85.571 158.048 85.835C157.395 86.0917 156.706 86.22 155.98 86.22C154.939 86.22 154.018 85.9927 153.219 85.538C152.427 85.076 151.807 84.4123 151.36 83.547C150.92 82.6817 150.7 81.6403 150.7 80.423C150.7 79.213 150.902 78.157 151.305 77.255C151.708 76.3457 152.291 75.6453 153.054 75.154C153.824 74.6553 154.752 74.406 155.837 74.406C156.886 74.406 157.773 74.6333 158.499 75.088C159.225 75.5353 159.779 76.177 160.16 77.013C160.541 77.849 160.732 78.8463 160.732 80.005V80.709H152.449ZM152.46 79.488H159.06C159.06 78.784 158.943 78.1497 158.708 77.585C158.473 77.0203 158.118 76.573 157.641 76.243C157.164 75.913 156.559 75.748 155.826 75.748C155.049 75.748 154.411 75.935 153.912 76.309C153.421 76.6757 153.054 77.145 152.812 77.717C152.57 78.289 152.453 78.8793 152.46 79.488ZM163.658 86V74.626H165.308V76.287C165.499 75.957 165.759 75.6527 166.089 75.374C166.427 75.0953 166.834 74.8717 167.31 74.703C167.794 74.5343 168.337 74.45 168.938 74.45C169.672 74.45 170.339 74.5967 170.94 74.89C171.549 75.176 172.033 75.6233 172.392 76.232C172.752 76.8407 172.931 77.6217 172.931 78.575V86H171.215V78.729C171.215 77.761 170.97 77.046 170.478 76.584C169.987 76.122 169.338 75.891 168.531 75.891C167.981 75.891 167.464 75.979 166.98 76.155C166.496 76.331 166.108 76.5987 165.814 76.958C165.521 77.3173 165.374 77.7683 165.374 78.311V86H163.658ZM181.161 75.913H178.587V83.25C178.587 83.69 178.628 84.0127 178.708 84.218C178.796 84.416 178.947 84.5443 179.159 84.603C179.379 84.6543 179.684 84.68 180.072 84.68H181.238V85.868C181.099 85.9193 180.89 85.9633 180.611 86C180.34 86.0293 180.014 86.044 179.632 86.044C178.906 86.044 178.342 85.9413 177.938 85.736C177.542 85.5307 177.264 85.2263 177.102 84.823C176.941 84.4197 176.86 83.9137 176.86 83.305V75.913H175.012V74.626H176.904L177.311 71.348H178.587V74.615H181.161V75.913ZM188.135 86.22C187.343 86.22 186.613 86.099 185.946 85.857C185.286 85.6077 184.74 85.23 184.307 84.724C183.882 84.2107 183.614 83.558 183.504 82.766H185.099C185.202 83.2207 185.389 83.6057 185.66 83.921C185.931 84.2363 186.276 84.4783 186.694 84.647C187.119 84.8083 187.6 84.889 188.135 84.889C188.942 84.889 189.591 84.735 190.082 84.427C190.573 84.1117 190.819 83.6313 190.819 82.986C190.819 82.5387 190.691 82.1793 190.434 81.908C190.185 81.6367 189.803 81.4387 189.29 81.314L186.837 80.687C185.942 80.4597 185.231 80.1187 184.703 79.664C184.175 79.202 183.907 78.5603 183.9 77.739C183.9 77.0863 184.054 76.5107 184.362 76.012C184.677 75.5133 185.147 75.121 185.77 74.835C186.393 74.549 187.174 74.406 188.113 74.406C189.308 74.406 190.273 74.6737 191.006 75.209C191.739 75.7443 192.128 76.5437 192.172 77.607H190.61C190.537 77.0277 190.287 76.5693 189.862 76.232C189.437 75.8873 188.85 75.715 188.102 75.715C187.332 75.715 186.705 75.8727 186.221 76.188C185.744 76.5033 185.506 76.991 185.506 77.651C185.506 78.091 185.671 78.4357 186.001 78.685C186.331 78.927 186.811 79.1287 187.442 79.29L189.84 79.917C190.339 80.049 190.749 80.225 191.072 80.445C191.402 80.6577 191.662 80.8997 191.853 81.171C192.051 81.435 192.19 81.7173 192.271 82.018C192.359 82.3187 192.403 82.6083 192.403 82.887C192.403 83.569 192.238 84.1593 191.908 84.658C191.578 85.1567 191.094 85.5417 190.456 85.813C189.825 86.0843 189.052 86.22 188.135 86.22Z" fill="white"/>
<path d="M219 2.5C219 9.40356 213.404 15 206.5 15C199.596 15 194 9.40356 194 2.5C194 -4.40356 199.596 -10 206.5 -10C213.404 -10 219 -4.40356 219 2.5ZM195.376 2.5C195.376 8.64339 200.357 13.6236 206.5 13.6236C212.643 13.6236 217.624 8.64339 217.624 2.5C217.624 -3.64339 212.643 -8.62359 206.5 -8.62359C200.357 -8.62359 195.376 -3.64339 195.376 2.5Z" fill="#B7B0B8"/>
<path d="M259 110.5C259 119.06 252.06 126 243.5 126C234.94 126 228 119.06 228 110.5C228 101.94 234.94 95 243.5 95C252.06 95 259 101.94 259 110.5ZM229.707 110.5C229.707 118.118 235.882 124.293 243.5 124.293C251.118 124.293 257.293 118.118 257.293 110.5C257.293 102.882 251.118 96.7067 243.5 96.7067C235.882 96.7067 229.707 102.882 229.707 110.5Z" fill="#B7B0B8"/>
<path d="M19 3C19 6.86599 15.866 10 12 10C8.13401 10 5 6.86599 5 3C5 -0.865993 8.13401 -4 12 -4C15.866 -4 19 -0.865993 19 3ZM5.77079 3C5.77079 6.4403 8.5597 9.22921 12 9.22921C15.4403 9.22921 18.2292 6.4403 18.2292 3C18.2292 -0.440299 15.4403 -3.22921 12 -3.22921C8.5597 -3.22921 5.77079 -0.440299 5.77079 3Z" fill="#B7B0B8"/>
<path d="M19 117C19 120.866 15.866 124 12 124C8.13401 124 5 120.866 5 117C5 113.134 8.13401 110 12 110C15.866 110 19 113.134 19 117ZM5.77079 117C5.77079 120.44 8.5597 123.229 12 123.229C15.4403 123.229 18.2292 120.44 18.2292 117C18.2292 113.56 15.4403 110.771 12 110.771C8.5597 110.771 5.77079 113.56 5.77079 117Z" fill="#B7B0B8"/>
<path d="M15 124C15 128.971 10.9706 133 6 133C1.02944 133 -3 128.971 -3 124C-3 119.029 1.02944 115 6 115C10.9706 115 15 119.029 15 124ZM-2.00899 124C-2.00899 128.423 1.57676 132.009 6 132.009C10.4232 132.009 14.009 128.423 14.009 124C14.009 119.577 10.4232 115.991 6 115.991C1.57676 115.991 -2.00899 119.577 -2.00899 124Z" fill="#B7B0B8"/>
<path d="M104 62.9998C104 62.9998 112.382 61.9099 116.5 61.9994C123.765 62.1573 125.734 64.8789 133 65C139.296 65.1049 144.706 62.7916 151 62.9998C157.452 63.2132 165.5 62.9998 165.5 62.9998" stroke="#B7B0B8"/>
<path d="M105 88.9998C105 88.9998 109.594 92.3343 113 92.4998C115.602 92.6262 116.895 90.9998 119.5 90.9998C122.105 90.9998 123.401 92.317 126 92.4998C129.747 92.7632 131.75 90.7952 135.5 90.9998C138.292 91.152 139.705 92.4615 142.5 92.4998C145.487 92.5407 147.014 91.0676 150 90.9998C153.37 90.9232 155.146 92.8323 158.5 92.4998C162.072 92.1456 163.444 88.5078 167 88.9998C169.687 89.3715 170.315 92.1142 173 92.4998C175.579 92.87 176.895 91.0188 179.5 90.9998C182.96 90.9744 184.812 94.8454 188 93.4998C190.166 92.5853 192 88.9998 192 88.9998" stroke="#B7B0B8"/>
<path d="M54.7382 44.277C57.2561 46.5131 78.8302 39.2711 82.5737 45.8009C90.0385 58.8218 86.6778 89.6039 82.5737 88.8886M79.2134 89.4275C76.6955 87.1913 55.8216 94.4282 52.0691 87.9035C43.1809 72.4491 47.8283 40.8197 52.0691 44.8158" stroke="#FCFFFD" stroke-width="2.28784" stroke-linecap="round"/>
<path fill-rule="evenodd" clip-rule="evenodd" d="M58.5511 56.0968C59.604 56.0968 60.4576 55.2432 60.4576 54.1902C60.4576 53.1373 59.604 52.2837 58.5511 52.2837C57.4981 52.2837 56.6445 53.1373 56.6445 54.1902C56.6445 55.2432 57.4981 56.0968 58.5511 56.0968ZM58.5512 64.4855C59.6042 64.4855 60.4578 63.6319 60.4578 62.579C60.4578 61.526 59.6042 60.6725 58.5512 60.6725C57.4983 60.6725 56.6447 61.526 56.6447 62.579C56.6447 63.6319 57.4983 64.4855 58.5512 64.4855ZM60.4578 70.968C60.4578 72.0209 59.6042 72.8745 58.5512 72.8745C57.4983 72.8745 56.6447 72.0209 56.6447 70.968C56.6447 69.915 57.4983 69.0615 58.5512 69.0615C59.6042 69.0615 60.4578 69.915 60.4578 70.968ZM58.5512 81.2631C59.6042 81.2631 60.4578 80.4095 60.4578 79.3566C60.4578 78.3036 59.6042 77.45 58.5512 77.45C57.4983 77.45 56.6447 78.3036 56.6447 79.3566C56.6447 80.4095 57.4983 81.2631 58.5512 81.2631Z" fill="#FCFFFD"/>
<path fill-rule="evenodd" clip-rule="evenodd" d="M73.1756 54.5636C73.754 54.4954 74.5427 54.4928 75.2242 54.5122C75.557 54.5216 75.8503 54.5358 76.06 54.5476C76.1647 54.5535 76.2481 54.5588 76.3048 54.5625L76.3688 54.5669L76.3843 54.568L76.3877 54.5683L76.3882 54.5683L76.3883 54.5683L76.3883 54.5683C77.0183 54.6153 77.5671 54.1427 77.6141 53.5128C77.6612 52.8828 77.1886 52.3339 76.5586 52.2868L76.4734 53.4276C76.5586 52.2868 76.5585 52.2868 76.5584 52.2868L76.5582 52.2868L76.5577 52.2867L76.556 52.2866L76.5503 52.2862L76.5301 52.2848L76.4562 52.2797C76.3928 52.2755 76.3017 52.2697 76.1886 52.2634C75.9629 52.2507 75.6478 52.2354 75.289 52.2253C74.5874 52.2053 73.6602 52.2028 72.9077 52.2915C71.9319 52.4066 71.1977 52.6862 70.5821 52.9207L70.5382 52.9374C69.9157 53.1744 69.4097 53.361 68.7258 53.434C67.8968 53.5225 66.7655 53.4418 65.7826 53.3225C65.3034 53.2644 64.8814 53.1999 64.5797 53.1501C64.4291 53.1252 64.3091 53.1041 64.2278 53.0894C64.1871 53.082 64.1561 53.0763 64.1358 53.0725L64.1136 53.0682L64.1087 53.0673L64.1082 53.0672L64.108 53.0672L64.108 53.0672C63.4878 52.9469 62.8876 53.3521 62.7673 53.9722C62.6469 54.5924 63.0521 55.1928 63.6723 55.3131L63.8902 54.1902C63.6723 55.3131 63.6724 55.3132 63.6725 55.3132L63.6728 55.3132L63.6736 55.3134L63.6761 55.3139L63.6843 55.3155L63.7135 55.321C63.7385 55.3257 63.7745 55.3324 63.8203 55.3406C63.912 55.3572 64.0436 55.3804 64.2069 55.4074C64.5329 55.4612 64.9882 55.5307 65.507 55.5937C66.5198 55.7166 67.8671 55.8265 68.9686 55.7089C69.9689 55.6022 70.7149 55.3182 71.3443 55.0786L71.3522 55.0756C71.9812 54.8361 72.4885 54.6446 73.1756 54.5636ZM73.5567 62.6406C74.1352 62.5724 74.9239 62.5698 75.6053 62.5891C75.9382 62.5986 76.2315 62.6128 76.4412 62.6246C76.5459 62.6305 76.6293 62.6358 76.6859 62.6395L76.7499 62.6439L76.7655 62.645L76.7689 62.6452L76.7693 62.6453L76.7694 62.6453L76.7695 62.6453C77.3994 62.6923 77.9482 62.2197 77.9953 61.5897C78.0424 60.9597 77.5698 60.4109 76.9398 60.3638L76.8546 61.5045C76.9398 60.3638 76.9397 60.3638 76.9396 60.3638L76.9394 60.3638L76.9388 60.3637L76.9371 60.3636L76.9315 60.3632L76.9113 60.3617L76.8374 60.3567C76.774 60.3525 76.6829 60.3467 76.5698 60.3404C76.344 60.3276 76.0289 60.3124 75.6702 60.3022C74.9686 60.2823 74.0413 60.2798 73.2888 60.3685C72.3131 60.4835 71.5789 60.7632 70.9633 60.9977L70.9194 61.0144C70.2969 61.2514 69.7908 61.438 69.107 61.511C68.278 61.5995 67.1467 61.5188 66.1637 61.3995C65.6846 61.3414 65.2626 61.2769 64.9609 61.2271C64.8103 61.2022 64.6903 61.1811 64.6089 61.1663C64.5683 61.159 64.5373 61.1532 64.517 61.1494L64.4948 61.1452L64.4899 61.1443L64.4894 61.1442L64.4892 61.1442L64.4891 61.1441C63.869 61.0239 63.2688 61.4291 63.1484 62.0492C63.0281 62.6694 63.4333 63.2697 64.0535 63.3901L64.2714 62.2672C64.0535 63.3901 64.0536 63.3901 64.0537 63.3902L64.054 63.3902L64.0548 63.3904L64.0573 63.3909L64.0655 63.3924L64.0947 63.398C64.1197 63.4027 64.1556 63.4093 64.2015 63.4176C64.2932 63.4342 64.4247 63.4574 64.588 63.4843C64.9141 63.5382 65.3693 63.6077 65.8881 63.6707C66.901 63.7936 68.2482 63.9035 69.3498 63.7859C70.35 63.6792 71.0961 63.3952 71.7255 63.1556L71.7333 63.1526C72.3624 62.9131 72.8697 62.7216 73.5567 62.6406ZM75.9865 71.4289C75.305 71.4096 74.5164 71.4122 73.9379 71.4804C73.2508 71.5614 72.7436 71.7529 72.1145 71.9923L72.1066 71.9953C71.4772 72.2349 70.7312 72.5189 69.731 72.6257C68.6294 72.7433 67.2822 72.6333 66.2693 72.5104C65.7505 72.4475 65.2952 72.378 64.9692 72.3241C64.8059 72.2971 64.6744 72.274 64.5827 72.2574C64.5368 72.2491 64.5009 72.2424 64.4759 72.2377L64.4467 72.2322L64.4385 72.2306L64.436 72.2302L64.4352 72.23L64.4349 72.2299C64.4347 72.2299 64.4346 72.2299 64.6526 71.1069L64.4346 72.2299C63.8144 72.1095 63.4092 71.5092 63.5296 70.889C63.65 70.2688 64.2502 69.8637 64.8703 69.9839L64.8704 69.9839L64.8705 69.984L64.8711 69.9841L64.876 69.985L64.8982 69.9892C64.9185 69.993 64.9494 69.9988 64.9901 70.0061C65.0715 70.0208 65.1914 70.042 65.342 70.0668C65.6438 70.1167 66.0658 70.1811 66.5449 70.2393C67.5279 70.3585 68.6592 70.4393 69.4882 70.3508C70.172 70.2778 70.678 70.0911 71.3006 69.8542L71.3445 69.8374C71.9601 69.603 72.6942 69.3233 73.67 69.2083C74.4225 69.1195 75.3497 69.1221 76.0514 69.142C76.4101 69.1522 76.7252 69.1674 76.951 69.1801C77.064 69.1865 77.1551 69.1922 77.2186 69.1965L77.2925 69.2015L77.3127 69.203L77.3183 69.2034L77.32 69.2035L77.3206 69.2035L77.3208 69.2036C77.3209 69.2036 77.3209 69.2036 77.2357 70.3443L77.3209 69.2036C77.951 69.2506 78.4235 69.7995 78.3765 70.4295C78.3294 71.0595 77.7806 71.532 77.1507 71.4851L77.1506 71.4851L77.1505 71.4851L77.1501 71.485L77.1467 71.4848L77.1311 71.4837L77.0671 71.4793C77.0105 71.4755 76.9271 71.4702 76.8224 71.4644C76.6127 71.4525 76.3194 71.4384 75.9865 71.4289ZM74.3191 80.3201C74.8975 80.2519 75.6862 80.2494 76.3677 80.2687C76.7005 80.2781 76.9938 80.2923 77.2036 80.3041C77.3082 80.31 77.3917 80.3153 77.4483 80.3191L77.5123 80.3234L77.5278 80.3245L77.5313 80.3248L77.5317 80.3248L77.5318 80.3248L77.5319 80.3248C78.1618 80.3718 78.7106 79.8993 78.7577 79.2693C78.8047 78.6393 78.3321 78.0904 77.7021 78.0433L77.6169 79.1841C77.7021 78.0433 77.702 78.0433 77.702 78.0433L77.7017 78.0433L77.7012 78.0433L77.6995 78.0431L77.6938 78.0427L77.6737 78.0413L77.5998 78.0362C77.5363 78.032 77.4452 78.0263 77.3322 78.0199C77.1064 78.0072 76.7913 77.9919 76.4326 77.9818C75.7309 77.9619 74.8037 77.9593 74.0512 78.048C73.0754 78.1631 72.3413 78.4427 71.7257 78.6772L71.6818 78.6939C71.0592 78.9309 70.5532 79.1175 69.8693 79.1905C69.0403 79.279 67.9091 79.1983 66.9261 79.079C66.447 79.0209 66.025 78.9565 65.7232 78.9066C65.5726 78.8817 65.4526 78.8606 65.3713 78.8459C65.3306 78.8385 65.2997 78.8328 65.2794 78.829L65.2571 78.8248L65.2523 78.8238L65.2517 78.8237L65.2515 78.8237L65.2515 78.8237C64.6314 78.7035 64.0312 79.1086 63.9108 79.7287C63.7904 80.3489 64.1956 80.9493 64.8158 81.0697L65.0338 79.9467C64.8158 81.0697 64.8159 81.0697 64.816 81.0697L64.8164 81.0698L64.8172 81.0699L64.8197 81.0704L64.8279 81.072L64.8571 81.0775C64.8821 81.0822 64.918 81.0889 64.9639 81.0972C65.0556 81.1138 65.1871 81.1369 65.3504 81.1639C65.6764 81.2177 66.1317 81.2873 66.6505 81.3502C67.6634 81.4731 69.0106 81.583 70.1122 81.4655C71.1124 81.3587 71.8584 81.0747 72.4878 80.8351L72.4957 80.8321C73.1247 80.5926 73.632 80.4011 74.3191 80.3201Z" fill="#FCFFFD"/>
</g>
<defs>
<clipPath id="clip0_301_354">
<rect width="233" height="129" fill="white"/>
</clipPath>
</defs>
</svg>
